<svg width="200" height="40" viewBox="0 0 200 40" fill="none" xmlns="http://www.w3.org/2000/svg">
<rect width="200" height="40" rx="10" fill="black"/>
<rect width="200" height="40" rx="5" fill="black"/>
<path d="M70.1645 27L72.9645 13H76.9245L74.7645 23.86H81.4445L80.8045 27H70.1645ZM89.4167 27.28C87.9767 27.28 86.7367 27.02 85.6967 26.5C84.6567 25.9667 83.8567 25.24 83.2967 24.32C82.7367 23.4 82.4567 22.3333 82.4567 21.12C82.4567 19.8933 82.67 18.7733 83.0967 17.76C83.5234 16.7333 84.1234 15.8467 84.8967 15.1C85.67 14.34 86.59 13.7533 87.6567 13.34C88.7367 12.9267 89.9167 12.72 91.1967 12.72C92.6367 12.72 93.8767 12.9867 94.9167 13.52C95.9567 14.04 96.7567 14.76 97.3167 15.68C97.8767 16.6 98.1567 17.6667 98.1567 18.88C98.1567 20.1067 97.9434 21.2333 97.5167 22.26C97.09 23.2733 96.49 24.16 95.7167 24.92C94.9434 25.6667 94.0167 26.2467 92.9367 26.66C91.87 27.0733 90.6967 27.28 89.4167 27.28ZM89.7567 24C90.45 24 91.0634 23.8733 91.5967 23.62C92.1434 23.3667 92.6034 23.0133 92.9767 22.56C93.3634 22.0933 93.6567 21.5667 93.8567 20.98C94.0567 20.3933 94.1567 19.7733 94.1567 19.12C94.1567 18.4933 94.0234 17.9467 93.7567 17.48C93.5034 17.0133 93.13 16.6533 92.6367 16.4C92.1567 16.1333 91.5634 16 90.8567 16C90.1767 16 89.5634 16.1267 89.0167 16.38C88.47 16.6333 88.0034 16.9933 87.6167 17.46C87.2434 17.9133 86.9567 18.4333 86.7567 19.02C86.5567 19.6067 86.4567 20.2267 86.4567 20.88C86.4567 21.4933 86.5834 22.04 86.8367 22.52C87.1034 22.9867 87.4767 23.3533 87.9567 23.62C88.45 23.8733 89.05 24 89.7567 24ZM106.111 27.28C104.697 27.28 103.457 27.02 102.391 26.5C101.337 25.98 100.517 25.26 99.9308 24.34C99.3574 23.4067 99.0708 22.3333 99.0708 21.12C99.0708 19.9067 99.2841 18.7867 99.7108 17.76C100.137 16.7333 100.744 15.8467 101.531 15.1C102.317 14.34 103.251 13.7533 104.331 13.34C105.424 12.9267 106.637 12.72 107.971 12.72C109.371 12.72 110.577 12.94 111.591 13.38C112.617 13.82 113.444 14.46 114.071 15.3L111.231 17.54C110.764 16.9667 110.257 16.5667 109.711 16.34C109.164 16.1133 108.524 16 107.791 16C107.071 16 106.417 16.12 105.831 16.36C105.257 16.6 104.764 16.94 104.351 17.38C103.937 17.82 103.617 18.34 103.391 18.94C103.177 19.5267 103.071 20.1667 103.071 20.86C103.071 21.4867 103.211 22.04 103.491 22.52C103.771 22.9867 104.177 23.3533 104.711 23.62C105.244 23.8733 105.891 24 106.651 24C107.264 24 107.851 23.9 108.411 23.7C108.984 23.5 109.557 23.1667 110.131 22.7L111.631 25.6C110.911 26.1333 110.077 26.5467 109.131 26.84C108.184 27.1333 107.177 27.28 106.111 27.28ZM108.251 24.98L109.311 19.7H112.811L111.631 25.6L108.251 24.98ZM121.121 27.28C119.681 27.28 118.441 27.02 117.401 26.5C116.361 25.9667 115.561 25.24 115.001 24.32C114.441 23.4 114.161 22.3333 114.161 21.12C114.161 19.8933 114.375 18.7733 114.801 17.76C115.228 16.7333 115.828 15.8467 116.601 15.1C117.375 14.34 118.295 13.7533 119.361 13.34C120.441 12.9267 121.621 12.72 122.901 12.72C124.341 12.72 125.581 12.9867 126.621 13.52C127.661 14.04 128.461 14.76 129.021 15.68C129.581 16.6 129.861 17.6667 129.861 18.88C129.861 20.1067 129.648 21.2333 129.221 22.26C128.795 23.2733 128.195 24.16 127.421 24.92C126.648 25.6667 125.721 26.2467 124.641 26.66C123.575 27.0733 122.401 27.28 121.121 27.28ZM121.461 24C122.155 24 122.768 23.8733 123.301 23.62C123.848 23.3667 124.308 23.0133 124.681 22.56C125.068 22.0933 125.361 21.5667 125.561 20.98C125.761 20.3933 125.861 19.7733 125.861 19.12C125.861 18.4933 125.728 17.9467 125.461 17.48C125.208 17.0133 124.835 16.6533 124.341 16.4C123.861 16.1333 123.268 16 122.561 16C121.881 16 121.268 16.1267 120.721 16.38C120.175 16.6333 119.708 16.9933 119.321 17.46C118.948 17.9133 118.661 18.4333 118.461 19.02C118.261 19.6067 118.161 20.2267 118.161 20.88C118.161 21.4933 118.288 22.04 118.541 22.52C118.808 22.9867 119.181 23.3533 119.661 23.62C120.155 23.8733 120.755 24 121.461 24Z" fill="#D9D9D9"/>
</svg>
